<?xml version="1.0" encoding="iso-8859-1"?>
<!-- Generator: Adobe Illustrator 19.0.0, SVG Export Plug-In . SVG Version: 6.00 Build 0)  -->
<svg version="1.1" id="Layer_1" xmlns="http://www.w3.org/2000/svg" xmlns:xlink="http://www.w3.org/1999/xlink" x="0px" y="0px"
	 viewBox="0 0 511.994 511.994" style="enable-background:new 0 0 511.994 511.994;" xml:space="preserve">
<rect x="202.667" y="394.894" style="fill:#7F4545;" width="106.68" height="117.09"/>
<rect x="202.667" y="423.804" style="fill:#9B5C5C;" width="21.327" height="88.19"/>
<path style="fill:#8CC153;" d="M85.341,426.974l170.652-320.32l170.66,320.321c0,0-51.529,21.016-170.66,21.016
	C136.871,447.99,85.341,426.974,85.341,426.974z"/>
<path style="fill:#A0D468;" d="M114.153,372.882c19.218,4.891,61.654,12.25,142.699,12.25c81.646,0,122.771-7.469,140.928-12.359
	l-25.469-47.78c-24.719,3.5-61.404,6.516-114.396,6.516c-54.764,0-92.654-3.219-118.044-6.875L114.153,372.882z"/>
<polygon style="fill:#79A83D;" points="153.809,298.274 379.28,338.023 346.936,278.306 164.542,278.306 "/>
<path style="fill:#8CC153;" d="M329.75,329.289l49.53,8.734l-7.062-13.016C360.749,326.617,346.749,328.133,329.75,329.289z"/>
<path style="fill:#A0D468;" d="M128.027,267.025L256.024,0L384.03,267.025c0,0-45.344,20.968-128.021,20.968
	C173.308,287.993,128.027,267.025,128.027,267.025z"/>
<g>
	<path style="fill:#8CC153;" d="M150.965,219.167c24.608,3.016,59.029,5.438,106.169,5.438c46.367,0,80.021-2.344,104.021-5.297
		l-24.5-51.108c-21.312,1.562-47.342,2.578-78.881,2.578c-32.999,0-60.123-1.109-82.279-2.781L150.965,219.167z"/>
	<path style="fill:#8CC153;" d="M200.183,116.497c16.937,0.516,35.905,0.828,57.123,0.828c20.258,0,38.383-0.281,54.602-0.766
		L256.024,0L200.183,116.497z"/>
</g>
<g>
</g>
<g>
</g>
<g>
</g>
<g>
</g>
<g>
</g>
<g>
</g>
<g>
</g>
<g>
</g>
<g>
</g>
<g>
</g>
<g>
</g>
<g>
</g>
<g>
</g>
<g>
</g>
<g>
</g>
</svg>
