<?xml version="1.0" standalone="no"?>
<!DOCTYPE svg PUBLIC "-//W3C//DTD SVG 20010904//EN"
 "http://www.w3.org/TR/2001/REC-SVG-20010904/DTD/svg10.dtd">
<svg version="1.0" xmlns="http://www.w3.org/2000/svg"
 width="462.000000pt" height="194.000000pt" viewBox="0 0 462.000000 194.000000"
 preserveAspectRatio="xMidYMid meet">
<metadata>
Created by potrace 1.15, written by Peter Selinger 2001-2017
</metadata>
<g transform="translate(0.000000,194.000000) scale(0.100000,-0.100000)"
fill="#000000" stroke="none">
<path d="M894 1865 c-258 -129 -655 -662 -759 -1020 -35 -120 -45 -267 -21
-317 22 -46 61 -63 127 -55 90 11 235 93 408 232 45 36 77 57 71 46 -16 -32
-13 -71 7 -71 22 0 137 117 187 190 41 59 41 58 2 -35 -33 -79 -33 -125 0
-164 21 -25 34 -31 64 -31 32 0 43 6 64 33 19 23 26 27 26 15 0 -41 87 -4 144
61 18 20 21 20 37 5 26 -24 90 -11 188 36 45 22 81 36 81 32 0 -4 -11 -24 -25
-44 -14 -20 -25 -39 -25 -42 0 -20 33 5 109 80 99 99 248 218 237 188 -20 -52
-18 -72 9 -100 26 -26 29 -27 113 -20 47 3 111 13 141 20 31 8 88 15 126 15
69 0 181 27 293 69 l50 19 -15 -36 c-8 -20 -41 -88 -74 -151 -58 -114 -90
-159 -139 -192 -36 -24 -3 -23 38 2 43 26 114 138 177 278 51 111 53 114 113
153 49 30 62 44 62 64 0 22 -4 25 -38 25 -41 0 -77 -29 -103 -84 -10 -20 -31
-35 -74 -53 -79 -32 -208 -69 -270 -77 l-50 -7 60 34 c57 32 105 84 105 113 0
23 -38 54 -65 54 -79 0 -184 -105 -171 -171 6 -32 4 -33 -94 -49 -95 -15 -135
-13 -161 9 -23 19 -23 19 -6 73 15 49 23 58 89 104 174 121 400 355 413 428
11 55 4 71 -33 74 -65 6 -180 -108 -352 -348 -45 -63 -90 -130 -100 -150 -12
-23 -43 -52 -89 -83 -39 -26 -105 -79 -146 -118 -47 -45 -75 -65 -75 -55 0 25
-17 20 -123 -34 -97 -49 -140 -60 -152 -40 -8 13 15 50 68 107 72 79 16 45
-83 -50 -95 -92 -160 -145 -160 -132 0 24 73 138 120 187 51 53 59 58 98 58
26 0 41 4 37 10 -9 14 -60 12 -98 -4 -51 -21 -123 -93 -190 -191 -70 -100 -92
-112 -126 -69 -30 38 -26 74 20 183 23 53 43 113 45 134 2 31 17 52 93 135
232 250 351 437 351 551 0 81 -47 74 -135 -21 -62 -65 -123 -144 -202 -263
-76 -114 -262 -416 -310 -503 -39 -71 -110 -140 -253 -243 -245 -178 -360
-213 -408 -122 -32 59 -1 266 63 422 90 221 269 489 458 687 88 94 208 191
265 216 40 18 45 18 68 3 52 -34 55 -104 7 -202 -38 -77 -177 -247 -323 -394
-162 -163 -226 -204 -259 -165 -9 11 -10 20 -1 35 9 17 8 21 -5 21 -24 0 -40
-43 -26 -69 15 -27 68 -28 120 -2 69 36 274 237 407 402 144 177 187 317 119
385 -32 32 -60 30 -141 -11z m526 -173 c0 -72 -55 -187 -153 -317 -62 -83
-273 -319 -367 -410 l-71 -70 57 100 c114 202 375 583 466 681 47 51 68 56 68
16z m898 -139 c5 -31 -22 -77 -93 -163 -77 -93 -213 -214 -309 -276 l-29 -18
28 44 c59 95 204 279 282 358 84 86 115 100 121 55z m-27 -462 l24 -19 -21
-29 c-28 -38 -114 -94 -139 -91 -12 2 -21 12 -23 25 -5 34 87 128 129 132 4 1
17 -8 30 -18z"/>
<path d="M3630 1650 c0 -12 -35 -57 -85 -109 l-85 -88 -72 1 c-92 0 -148 -24
-224 -96 -61 -58 -144 -177 -194 -278 -28 -57 -39 -69 -88 -96 -76 -40 -122
-106 -122 -174 0 -31 6 -54 16 -64 19 -20 26 -20 68 -2 33 14 34 14 40 -14 19
-97 171 -35 226 91 20 49 24 113 9 181 -2 9 16 41 41 71 l45 54 79 -3 c62 -2
81 -6 89 -19 5 -9 29 -77 53 -152 170 -524 460 -791 907 -833 109 -11 237 -5
237 10 0 4 -69 10 -152 13 -166 5 -252 23 -376 75 -245 103 -450 351 -565 682
-61 177 -79 244 -65 249 29 9 106 98 116 134 12 43 2 92 -28 129 l-19 25 41
39 c107 103 165 194 123 194 -8 0 -15 -9 -15 -20z m-217 -228 c3 -4 -45 -64
-106 -134 -62 -69 -137 -157 -168 -195 -57 -68 -57 -68 -108 -68 -28 0 -51 1
-51 3 0 1 14 31 31 65 76 151 184 278 271 317 43 19 123 27 131 12z m90 -99
c0 -52 -25 -97 -75 -133 l-41 -30 -23 21 c-13 12 -36 24 -53 28 l-30 6 87 97
87 97 24 -24 c17 -16 24 -34 24 -62z m-604 -429 c-12 -44 -23 -84 -25 -91 -5
-19 -53 -46 -70 -39 -24 9 -14 95 15 132 23 31 92 86 98 80 2 -2 -6 -39 -18
-82z m204 53 c24 -74 -78 -237 -150 -237 -31 0 -43 14 -43 51 0 22 160 219
174 215 6 -1 14 -14 19 -29z"/>
</g>
</svg>
